<?xml version="1.0" encoding="utf-8"?>
<!-- Generator: Adobe Illustrator 25.3.0, SVG Export Plug-In . SVG Version: 6.00 Build 0)  -->
<svg version="1.1" id="Layer_1" xmlns="http://www.w3.org/2000/svg" xmlns:xlink="http://www.w3.org/1999/xlink" x="0px" y="0px"
	 viewBox="0 0 64 64" style="enable-background:new 0 0 64 64;" xml:space="preserve">
<style type="text/css">
	.st0{fill:#33CC33;}
</style>
<g>
	<path class="st0" d="M16.88,31.18c0-9.15,7.21-16.21,16.62-16.21c7.28,0,13.23,4.23,15.55,10.39l13.99-7.48
		C57.97,7.14,46.88,0,33.5,0C15.08,0,0.96,13.49,0.96,31.29c0,6.39,1.87,12.21,5.1,17.06l14.02-7.5
		C18.06,38.18,16.88,34.85,16.88,31.18z"/>
	<path class="st0" d="M45.76,26.99c0.68,1.8,1.07,3.76,1.07,5.83c0,9.12-7.21,16.14-16.62,16.14c-5.62,0-10.44-2.51-13.42-6.47
		l-14.02,7.5C8.46,58.53,18.42,64,30.17,64c18.46,0,32.58-13.42,32.58-31.07c0-4.86-1.09-9.39-3-13.42L45.76,26.99z"/>
</g>
</svg>
