<?xml version="1.0" encoding="utf-8"?>
<!-- Generator: Adobe Illustrator 25.3.0, SVG Export Plug-In . SVG Version: 6.00 Build 0)  -->
<svg version="1.1" id="Layer_1" xmlns="http://www.w3.org/2000/svg" xmlns:xlink="http://www.w3.org/1999/xlink" x="0px" y="0px"
	 viewBox="0 0 350 77" style="enable-background:new 0 0 350 77;" xml:space="preserve">
<style type="text/css">
	.st0{fill:#D8D8D8;}
	.st1{fill:#002E54;}
	.st2{fill:#33CC33;}
</style>
<g>
	<polygon class="st0" points="350,50.63 348.86,0.48 0,8.44 1.14,58.59 76.06,56.88 76.51,76.52 273.44,72.03 272.99,52.39 	"/>
	<g>
		<path class="st1" d="M39,20.05h-9.42v29.56H19.12V20.05H9.68v-9.76H39V20.05z"/>
		<path class="st1" d="M53.75,20v5.49h12.49v8.71H53.75v5.63h15.17v9.78H43.43V10.29h25.49V20H53.75z"/>
		<path class="st1" d="M73.01,29.95c0-11.64,9.42-20.59,21.66-20.59c5.07,0.07,10.51,2.29,14.54,5.95l-6,7.71
			c-2.42-2.2-5.61-3.63-8.51-3.63c-6.05,0-11.1,4.61-11.1,10.64c0,6.1,5.27,10.59,10.88,10.59c3.29,0,6.24-1.56,8.78-3.83l5.95,7.93
			c-3.76,3.41-8.76,5.78-14.73,5.78C83.37,50.49,73.01,42.3,73.01,29.95z"/>
		<path class="st1" d="M147.61,10.24V50h-3.32l-20.22-19.59v19.22h-10.44V9.9H117l20.15,19.51V10.24H147.61z"/>
		<path class="st1" d="M199.1,42.71l4.88-3.49c1.76,3.07,5.03,4.83,8.81,4.83c4.42,0,7.76-2.12,7.76-5.12
			c0-3.63-5.17-5.83-9.76-7.81c-4.61-2.05-9.73-4.44-9.73-10.61c0-6.44,5.59-10.93,12.66-10.93c5.61,0,9.81,2.71,11.42,7.03
			l-4.59,3.17c-1.22-2.66-3.93-4.15-6.78-4.15c-3.61,0-6.49,2.24-6.49,5.03c0,3.07,3.63,4.17,8.41,6.22
			c6.22,2.73,11.05,5.73,11.05,11.93c0,6.98-6.05,11.46-14.03,11.46C206.25,50.27,201.34,47.25,199.1,42.71z"/>
		<path class="st1" d="M261.36,10.29v39.32h-6.17V33h-17.03v16.61h-6.15V10.29h6.15v16.59h17.03V10.29H261.36z"/>
		<path class="st1" d="M267.04,30c0-11.22,9.12-20.39,20.32-20.39c11.17,0,20.34,9.17,20.34,20.39c0,11.12-9.17,20.25-20.37,20.25
			C276.16,50.25,267.04,41.12,267.04,30z M301.45,29.95c0-7.78-6.37-14.12-14.12-14.12c-7.76,0-14.07,6.34-14.07,14.12
			c0,7.73,6.32,14.05,14.07,14.05C295.09,44,301.45,37.69,301.45,29.95z"/>
		<path class="st1" d="M313.34,10.29h13.15c7.61,0,13.83,5.83,13.83,12.98c0,7-6.22,12.71-13.83,12.71h-6.98v13.64h-6.17V10.29z
			 M334.15,23.22c0-3.76-3.44-6.81-7.66-6.81h-6.98v13.44l6.98,0.02C330.71,29.9,334.15,26.9,334.15,23.22z"/>
		<g>
			<path class="st2" d="M165.49,28.92c0-5.78,4.55-10.23,10.49-10.23c4.6,0,8.35,2.67,9.82,6.55l8.83-4.72
				c-3.2-6.77-10.2-11.28-18.65-11.28c-11.63,0-20.54,8.52-20.54,19.75c0,4.03,1.18,7.71,3.22,10.77l8.85-4.73
				C166.24,33.34,165.49,31.24,165.49,28.92z"/>
			<path class="st2" d="M183.72,26.28c0.43,1.14,0.67,2.37,0.67,3.68c0,5.76-4.55,10.19-10.49,10.19c-3.55,0-6.59-1.59-8.47-4.09
				l-8.85,4.73c3.59,5.39,9.88,8.84,17.3,8.84c11.65,0,20.56-8.47,20.56-19.61c0-3.07-0.69-5.93-1.89-8.47L183.72,26.28z"/>
		</g>
	</g>
	<g>
		<path d="M91.66,59.34h-2.98v9.15h-1.16v-9.15h-3v-1.15h7.14V59.34z"/>
		<path d="M99.62,58.18h1.16v10.3h-1.16V58.18z"/>
		<path d="M110.66,59.33v3.26h4.24v1.16h-4.24v3.58h4.89v1.16h-6.05v-10.3h6.05v1.14H110.66z"/>
		<path d="M132.22,58.16v10.49h-0.06l-7.06-7.84v7.69h-1.16V58.03H124l7.05,7.83v-7.7H132.22z"/>
		<path d="M149.05,63.34c0,3.14-2.04,5.14-5.25,5.14h-2.87v-10.3l2.87-0.01C147.01,58.18,149.05,60.18,149.05,63.34z M147.88,63.34
			c0-2.43-1.6-4.01-4.09-4.01h-1.7v7.99h1.72C146.29,67.32,147.88,65.76,147.88,63.34z"/>
		<path d="M162.99,66.79h-5.62l-0.75,1.69h-1.26l4.76-10.46h0.13l4.77,10.46h-1.27L162.99,66.79z M162.55,65.78l-2.36-5.3l-2.36,5.3
			H162.55z"/>
		<path d="M182.64,63.34c0-2.92,2.38-5.3,5.29-5.3c2.91,0,5.3,2.38,5.3,5.3c0,2.9-2.38,5.28-5.3,5.28
			C185.02,68.62,182.64,66.24,182.64,63.34z M192.05,63.33c0-2.27-1.85-4.13-4.13-4.13c-2.26,0-4.11,1.86-4.11,4.13
			c0,2.26,1.85,4.11,4.11,4.11C190.19,67.44,192.05,65.6,192.05,63.33z"/>
		<path d="M209.68,58.16v10.49h-0.06l-7.06-7.84v7.69h-1.16V58.03h0.06l7.05,7.83v-7.7H209.68z"/>
		<path d="M224.6,67.33v1.16h-6.21v-10.3h1.16v9.14H224.6z"/>
		<path d="M232.56,58.18h1.16v10.3h-1.16V58.18z"/>
		<path d="M250.71,58.16v10.49h-0.06l-7.06-7.84v7.69h-1.16V58.03h0.06l7.05,7.83v-7.7H250.71z"/>
		<path d="M260.59,59.33v3.26h4.24v1.16h-4.24v3.58h4.89v1.16h-6.05v-10.3h6.05v1.14H260.59z"/>
	</g>
</g>
</svg>
